<mxfile host="app.diagrams.net" modified="2024-07-19T04:56:18.574Z" agent="Mozilla/5.0 (Macintosh; Intel Mac OS X 10_15_7) AppleWebKit/605.1.15 (KHTML, like Gecko) Version/17.3 Safari/605.1.15" version="24.7.1" etag="bHNWY6OLFqcYv3A1sUfE" type="github">
  <diagram name="Page-1" id="_Zh9BVSA5M4d0jy6ZG2y">
    <mxGraphModel>
      <root>
        <mxCell id="0" />
        <mxCell id="1" parent="0" />
      </root>
    </mxGraphModel>
  </diagram>
</mxfile>
